# 3ds Max Wavefront OBJ Exporter v0.97b - (c)2007 guruware
# File Created: 23.10.2017 16:15:34

mtllib Autel.mtl

#
# object Box001
#

v  -4.0170402527 0.0000000000 10.7493495941
v  -4.0170402527 0.0000000000 4.1419334412
v  1.3019547462 0.0000000000 4.1419334412
v  1.3019547462 0.0000000000 10.7493495941
v  6.6209497452 0.0000000000 4.1419334412
v  6.6209497452 0.0000000000 10.7493495941
v  11.9399452209 0.0000000000 4.1419334412
v  11.9399452209 0.0000000000 10.7493495941
v  -4.0170402527 0.0000000000 -2.4654827118
v  1.3019547462 0.0000000000 -2.4654827118
v  6.6209497452 0.0000000000 -2.4654827118
v  11.9399452209 0.0000000000 -2.4654827118
v  -4.0170402527 0.0000000000 -9.0728988647
v  1.3019547462 0.0000000000 -9.0728988647
v  6.6209497452 0.0000000000 -9.0728988647
v  11.9399452209 0.0000000000 -9.0728988647
v  -0.5652608871 28.9376029968 7.2975702286
v  1.3019547462 28.9376029968 7.2975702286
v  1.3019547462 28.9376029968 4.1419334412
v  -0.5652608871 28.9376029968 4.1419334412
v  6.6209497452 28.9376029968 7.2975702286
v  6.6209497452 28.9376029968 4.1419334412
v  8.4881649017 28.9376029968 7.2975702286
v  8.4881649017 28.9376029968 4.1419334412
v  1.3019547462 28.9376029968 -2.4654827118
v  -0.5652608871 28.9376029968 -2.4654827118
v  6.6209497452 28.9376029968 -2.4654827118
v  8.4881649017 28.9376029968 -2.4654827118
v  1.3019547462 28.9376029968 -5.6211194992
v  -0.5652608871 28.9376029968 -5.6211194992
v  6.6209497452 28.9376029968 -5.6211194992
v  8.4881649017 28.9376029968 -5.6211194992
v  1.3019547462 3.0189743042 10.7493495941
v  -4.0170402527 3.0189743042 10.7493495941
v  6.6209497452 3.0189743042 10.7493495941
v  11.9399452209 3.0189743042 10.7493495941
v  11.9399452209 3.0189743042 4.1419334412
v  11.9399452209 3.0189743042 -2.4654827118
v  11.9399452209 3.0189743042 -9.0728988647
v  6.6209497452 3.0189743042 -9.0728988647
v  1.3019547462 3.0189743042 -9.0728988647
v  -4.0170402527 3.0189743042 -9.0728988647
v  -4.0170402527 3.0189743042 -2.4654827118
v  -4.0170402527 3.0189743042 4.1419334412
v  1.3019547462 3.0189743042 9.1142959595
v  -2.3819866180 3.0189743042 9.1142959595
v  6.6209497452 3.0189743042 9.1142959595
v  10.3048915863 3.0189743042 9.1142959595
v  10.3048915863 3.0189743042 4.1419334412
v  10.3048915863 3.0189743042 -2.4654827118
v  10.3048915863 3.0189743042 -7.4378452301
v  6.6209497452 3.0189743042 -7.4378452301
v  1.3019547462 3.0189743042 -7.4378452301
v  -2.3819866180 3.0189743042 -7.4378452301
v  -2.3819866180 3.0189743042 -2.4654827118
v  -2.3819866180 3.0189743042 4.1419334412
v  1.3019547462 3.8667798042 8.6298351288
v  -1.8975262642 3.8667798042 8.6298351288
v  6.6209497452 3.8667798042 8.6298351288
v  9.8204307556 3.8667798042 8.6298351288
v  9.8204307556 3.8667798042 4.1419334412
v  9.8204307556 3.8667798042 -2.4654827118
v  9.8204307556 3.8667798042 -6.9533848763
v  6.6209497452 3.8667798042 -6.9533848763
v  1.3019547462 3.8667798042 -6.9533848763
v  -1.8975262642 3.8667798042 -6.9533848763
v  -1.8975262642 3.8667798042 -2.4654827118
v  -1.8975262642 3.8667798042 4.1419334412
v  1.3019547462 3.8667798042 6.4497642517
v  0.2825450897 3.8667798042 6.4497642517
v  6.6209497452 3.8667798042 6.4497642517
v  7.6403594017 3.8667798042 6.4497642517
v  7.6403594017 3.8667798042 4.1419334412
v  7.6403594017 3.8667798042 -2.4654827118
v  7.6403594017 3.8667798042 -4.7733135223
v  6.6209497452 3.8667798042 -4.7733135223
v  1.3019547462 3.8667798042 -4.7733135223
v  0.2825450897 3.8667798042 -4.7733135223
v  0.2825450897 3.8667798042 -2.4654827118
v  0.2825450897 3.8667798042 4.1419334412
v  1.3019547462 5.8651785851 6.4497642517
v  0.2825450897 5.8651785851 6.4497642517
v  6.6209497452 5.8651785851 6.4497642517
v  7.6403594017 5.8651785851 6.4497642517
v  7.6403594017 5.8651785851 4.1419334412
v  7.6403594017 5.8651785851 -2.4654827118
v  7.6403594017 5.8651785851 -4.7733135223
v  6.6209497452 5.8651785851 -4.7733135223
v  1.3019547462 5.8651785851 -4.7733135223
v  0.2825450897 5.8651785851 -4.7733135223
v  0.2825450897 5.8651785851 -2.4654827118
v  0.2825450897 5.8651785851 4.1419334412
v  1.3019547462 13.4348716736 6.4497642517
v  0.2825450897 13.4348716736 6.4497642517
v  6.6209497452 13.4348716736 6.4497642517
v  7.6403594017 13.4348716736 6.4497642517
v  7.6403594017 13.4348716736 4.1419334412
v  7.6403594017 13.4348716736 -2.4654827118
v  7.6403594017 13.4348716736 -4.7733135223
v  6.6209497452 13.4348716736 -4.7733135223
v  1.3019547462 13.4348716736 -4.7733135223
v  0.2825450897 13.4348716736 -4.7733135223
v  0.2825450897 13.4348716736 -2.4654827118
v  0.2825450897 13.4348716736 4.1419334412
v  1.3019547462 21.0045642853 6.4497642517
v  0.2825450897 21.0045642853 6.4497642517
v  6.6209497452 21.0045642853 6.4497642517
v  7.6403594017 21.0045642853 6.4497642517
v  7.6403594017 21.0045642853 4.1419334412
v  7.6403594017 21.0045642853 -2.4654827118
v  7.6403594017 21.0045642853 -4.7733135223
v  6.6209497452 21.0045642853 -4.7733135223
v  1.3019547462 21.0045642853 -4.7733135223
v  0.2825450897 21.0045642853 -4.7733135223
v  0.2825450897 21.0045642853 -2.4654827118
v  0.2825450897 21.0045642853 4.1419334412
v  1.3019547462 25.8491668701 6.4497642517
v  0.2825450897 25.8491668701 6.4497642517
v  6.6209497452 25.8491668701 6.4497642517
v  7.6403594017 25.8491668701 6.4497642517
v  7.6403594017 25.8491668701 4.1419334412
v  7.6403594017 25.8491668701 -2.4654827118
v  7.6403594017 25.8491668701 -4.7733135223
v  6.6209497452 25.8491668701 -4.7733135223
v  1.3019547462 25.8491668701 -4.7733135223
v  0.2825450897 25.8491668701 -4.7733135223
v  0.2825450897 25.8491668701 -2.4654827118
v  0.2825450897 25.8491668701 4.1419334412
v  1.3019547462 27.3631057739 7.2975702286
v  -0.5652608871 27.3631057739 7.2975702286
v  6.6209497452 27.3631057739 7.2975702286
v  8.4881649017 27.3631057739 7.2975702286
v  8.4881649017 27.3631057739 4.1419334412
v  8.4881649017 27.3631057739 -2.4654827118
v  8.4881649017 27.3631057739 -5.6211194992
v  6.6209497452 27.3631057739 -5.6211194992
v  1.3019547462 27.3631057739 -5.6211194992
v  -0.5652608871 27.3631057739 -5.6211194992
v  -0.5652608871 27.3631057739 -2.4654827118
v  -0.5652608871 27.3631057739 4.1419334412
# 140 vertices

vn 0.0000000000 -1.0000000000 -0.0000000000
vn 0.0000000000 1.0000000000 -0.0000000000
vn 0.0000000000 0.0000000000 1.0000000000
vn 1.0000000000 0.0000000000 -0.0000000000
vn 0.0000000000 0.0000000000 -1.0000000000
vn -1.0000000000 0.0000000000 -0.0000000000
vn 0.0000000000 0.4961389601 0.8682432175
vn 0.0000000000 0.4961390197 0.8682430387
vn 0.0000000000 0.4961389601 0.8682430387
vn 0.8682431579 0.4961389899 -0.0000000000
vn 0.8682430387 0.4961389601 -0.0000000000
vn 0.0000000000 0.4961389601 -0.8682432175
vn 0.0000000000 0.4961390197 -0.8682430387
vn 0.0000000000 0.4961389601 -0.8682430387
vn -0.8682431579 0.4961389899 -0.0000000000
vn -0.8682430387 0.4961389601 -0.0000000000
vn 0.0000000000 0.9999999404 -0.0000000000
vn 0.0000000000 0.0000000000 -0.9999999404
vn 0.0000000000 0.0000000000 0.9999999404
vn 0.0000000000 -0.4886034429 0.8725059628
vn 0.0000000000 -0.4886034727 0.8725060225
vn 0.0000000000 -0.4886034429 0.8725059032
vn 0.8725059628 -0.4886034727 -0.0000000000
vn 0.8725060225 -0.4886034429 -0.0000000000
vn 0.0000000000 -0.4886034429 -0.8725059628
vn 0.0000000000 -0.4886034727 -0.8725060225
vn 0.0000000000 -0.4886034429 -0.8725059032
vn -0.8725059628 -0.4886034727 -0.0000000000
vn -0.8725060225 -0.4886034429 -0.0000000000
# 29 vertex normals

vt 1.0000000000 0.0000000000 0.0000000000
vt 1.0000000000 0.3333333433 0.0000000000
vt 0.6666666269 0.3333333433 0.0000000000
vt 0.6666666269 0.0000000000 0.0000000000
vt 0.3333332837 0.3333333433 0.0000000000
vt 0.3333332837 0.0000000000 0.0000000000
vt -0.0000000596 0.3333333433 0.0000000000
vt -0.0000000596 0.0000000000 0.0000000000
vt 1.0000000000 0.6666666865 0.0000000000
vt 0.6666666269 0.6666666865 0.0000000000
vt 0.3333332837 0.6666666865 0.0000000000
vt -0.0000000596 0.6666666865 0.0000000000
vt 1.0000000000 1.0000000000 0.0000000000
vt 0.6666666269 1.0000000000 0.0000000000
vt 0.3333332837 1.0000000000 0.0000000000
vt -0.0000000596 1.0000000000 0.0000000000
vt 0.0000000000 0.0000000000 0.0000000000
vt 0.3333333433 0.0000000000 0.0000000000
vt 0.3333333433 0.3333333433 0.0000000000
vt 0.0000000000 0.3333333433 0.0000000000
vt 0.6666666865 0.0000000000 0.0000000000
vt 0.6666666865 0.3333333433 0.0000000000
vt 0.3333333433 0.6666666865 0.0000000000
vt 0.0000000000 0.6666666865 0.0000000000
vt 0.6666666865 0.6666666865 0.0000000000
vt 0.3333333433 1.0000000000 0.0000000000
vt 0.0000000000 1.0000000000 0.0000000000
vt 0.6666666865 1.0000000000 0.0000000000
# 28 texture coords

g Box001
usemtl wire_227153153
s 2
f 1/1/1 2/2/1 3/3/1 4/4/1 
f 4/4/1 3/3/1 5/5/1 6/6/1 
f 6/6/1 5/5/1 7/7/1 8/8/1 
f 2/2/1 9/9/1 10/10/1 3/3/1 
f 3/3/1 10/10/1 11/11/1 5/5/1 
f 5/5/1 11/11/1 12/12/1 7/7/1 
f 9/9/1 13/13/1 14/14/1 10/10/1 
f 10/10/1 14/14/1 15/15/1 11/11/1 
f 11/11/1 15/15/1 16/16/1 12/12/1 
s 4
f 17/17/2 18/18/2 19/19/2 20/20/2 
f 18/18/2 21/21/2 22/22/2 19/19/2 
f 21/21/2 23/1/2 24/2/2 22/22/2 
f 20/20/2 19/19/2 25/23/2 26/24/2 
f 19/19/2 22/22/2 27/25/2 25/23/2 
f 22/22/2 24/2/2 28/9/2 27/25/2 
f 26/24/2 25/23/2 29/26/2 30/27/2 
f 25/23/2 27/25/2 31/28/2 29/26/2 
f 27/25/2 28/9/2 32/13/2 31/28/2 
s 8
f 1/17/3 4/18/3 33/26/3 34/27/3 
f 4/18/3 6/21/3 35/28/3 33/26/3 
f 6/21/3 8/1/3 36/13/3 35/28/3 
s 16
f 8/17/4 7/18/4 37/26/4 36/27/4 
f 7/18/4 12/21/4 38/28/4 37/26/4 
f 12/21/4 16/1/4 39/13/4 38/28/4 
s 32
f 16/17/5 15/18/5 40/26/5 39/27/5 
f 15/18/5 14/21/5 41/28/5 40/26/5 
f 14/21/5 13/1/5 42/13/5 41/28/5 
s 64
f 13/17/6 9/18/6 43/26/6 42/27/6 
f 9/18/6 2/21/6 44/28/6 43/26/6 
f 2/21/6 1/1/6 34/13/6 44/28/6 
s off
f 34/17/2 33/18/2 45/18/2 46/17/2 
f 33/18/2 35/21/2 47/21/2 45/18/2 
f 35/21/2 36/1/2 48/1/2 47/21/2 
f 36/1/2 37/2/2 49/2/2 48/1/2 
f 37/2/2 38/9/2 50/9/2 49/2/2 
f 38/9/2 39/13/2 51/13/2 50/9/2 
f 39/13/2 40/28/2 52/28/2 51/13/2 
f 40/28/2 41/26/2 53/26/2 52/28/2 
f 41/26/2 42/27/2 54/27/2 53/26/2 
f 42/27/2 43/24/2 55/24/2 54/27/2 
f 43/24/2 44/20/2 56/20/2 55/24/2 
f 44/20/2 34/17/2 46/17/2 56/20/2 
f 46/17/7 45/18/7 57/18/7 58/17/7 
f 45/18/8 47/21/8 59/21/8 57/18/8 
f 47/21/9 48/1/9 60/1/9 59/21/9 
f 48/1/10 49/2/10 61/2/10 60/1/10 
f 49/2/11 50/9/11 62/9/11 61/2/11 
f 50/9/10 51/13/10 63/13/10 62/9/10 
f 51/13/12 52/28/12 64/28/12 63/13/12 
f 52/28/13 53/26/13 65/26/13 64/28/13 
f 53/26/14 54/27/14 66/27/14 65/26/14 
f 54/27/15 55/24/15 67/24/15 66/27/15 
f 55/24/16 56/20/16 68/20/16 67/24/16 
f 56/20/15 46/17/15 58/17/15 68/20/15 
f 58/17/2 57/18/2 69/18/2 70/17/2 
f 57/18/2 59/21/2 71/21/2 69/18/2 
f 59/21/2 60/1/2 72/1/2 71/21/2 
f 60/1/2 61/2/2 73/2/2 72/1/2 
f 61/2/17 62/9/17 74/9/17 73/2/17 
f 62/9/2 63/13/2 75/13/2 74/9/2 
f 63/13/2 64/28/2 76/28/2 75/13/2 
f 64/28/2 65/26/2 77/26/2 76/28/2 
f 65/26/2 66/27/2 78/27/2 77/26/2 
f 66/27/2 67/24/2 79/24/2 78/27/2 
f 67/24/17 68/20/17 80/20/17 79/24/17 
f 68/20/2 58/17/2 70/17/2 80/20/2 
f 70/17/3 69/18/3 81/18/3 82/17/3 
f 69/18/3 71/21/3 83/21/3 81/18/3 
f 71/21/3 72/1/3 84/1/3 83/21/3 
f 72/1/4 73/2/4 85/2/4 84/1/4 
f 73/2/4 74/9/4 86/9/4 85/2/4 
f 74/9/4 75/13/4 87/13/4 86/9/4 
f 75/13/5 76/28/5 88/28/5 87/13/5 
f 76/28/5 77/26/5 89/26/5 88/28/5 
f 77/26/5 78/27/5 90/27/5 89/26/5 
f 78/27/6 79/24/6 91/24/6 90/27/6 
f 79/24/6 80/20/6 92/20/6 91/24/6 
f 80/20/6 70/17/6 82/17/6 92/20/6 
f 82/17/3 81/18/3 93/18/3 94/17/3 
f 81/18/3 83/21/3 95/21/3 93/18/3 
f 83/21/3 84/1/3 96/1/3 95/21/3 
f 84/1/4 85/2/4 97/2/4 96/1/4 
f 85/2/4 86/9/4 98/9/4 97/2/4 
f 86/9/4 87/13/4 99/13/4 98/9/4 
f 87/13/18 88/28/18 100/28/18 99/13/18 
f 88/28/5 89/26/5 101/26/5 100/28/5 
f 89/26/5 90/27/5 102/27/5 101/26/5 
f 90/27/6 91/24/6 103/24/6 102/27/6 
f 91/24/6 92/20/6 104/20/6 103/24/6 
f 92/20/6 82/17/6 94/17/6 104/20/6 
f 94/17/19 93/18/19 105/18/19 106/17/19 
f 93/18/3 95/21/3 107/21/3 105/18/3 
f 95/21/19 96/1/19 108/1/19 107/21/19 
f 96/1/4 97/2/4 109/2/4 108/1/4 
f 97/2/4 98/9/4 110/9/4 109/2/4 
f 98/9/4 99/13/4 111/13/4 110/9/4 
f 99/13/18 100/28/18 112/28/18 111/13/18 
f 100/28/5 101/26/5 113/26/5 112/28/5 
f 101/26/18 102/27/18 114/27/18 113/26/18 
f 102/27/6 103/24/6 115/24/6 114/27/6 
f 103/24/6 104/20/6 116/20/6 115/24/6 
f 104/20/6 94/17/6 106/17/6 116/20/6 
f 106/17/3 105/18/3 117/18/3 118/17/3 
f 105/18/3 107/21/3 119/21/3 117/18/3 
f 107/21/3 108/1/3 120/1/3 119/21/3 
f 108/1/4 109/2/4 121/2/4 120/1/4 
f 109/2/4 110/9/4 122/9/4 121/2/4 
f 110/9/4 111/13/4 123/13/4 122/9/4 
f 111/13/5 112/28/5 124/28/5 123/13/5 
f 112/28/5 113/26/5 125/26/5 124/28/5 
f 113/26/5 114/27/5 126/27/5 125/26/5 
f 114/27/6 115/24/6 127/24/6 126/27/6 
f 115/24/6 116/20/6 128/20/6 127/24/6 
f 116/20/6 106/17/6 118/17/6 128/20/6 
f 118/17/20 117/18/20 129/18/20 130/17/20 
f 117/18/21 119/21/21 131/21/21 129/18/21 
f 119/21/22 120/1/22 132/1/22 131/21/22 
f 120/1/23 121/2/23 133/2/23 132/1/23 
f 121/2/23 122/9/23 134/9/23 133/2/23 
f 122/9/24 123/13/24 135/13/24 134/9/24 
f 123/13/25 124/28/25 136/28/25 135/13/25 
f 124/28/26 125/26/26 137/26/26 136/28/26 
f 125/26/27 126/27/27 138/27/27 137/26/27 
f 126/27/28 127/24/28 139/24/28 138/27/28 
f 127/24/28 128/20/28 140/20/28 139/24/28 
f 128/20/29 118/17/29 130/17/29 140/20/29 
f 130/17/3 129/18/3 18/18/3 17/17/3 
f 129/18/3 131/21/3 21/21/3 18/18/3 
f 131/21/3 132/1/3 23/1/3 21/21/3 
f 132/1/4 133/2/4 24/2/4 23/1/4 
f 133/2/4 134/9/4 28/9/4 24/2/4 
f 134/9/4 135/13/4 32/13/4 28/9/4 
f 135/13/5 136/28/5 31/28/5 32/13/5 
f 136/28/5 137/26/5 29/26/5 31/28/5 
f 137/26/5 138/27/5 30/27/5 29/26/5 
f 138/27/6 139/24/6 26/24/6 30/27/6 
f 139/24/6 140/20/6 20/20/6 26/24/6 
f 140/20/6 130/17/6 17/17/6 20/20/6 
# 138 polygons

