# 3ds Max Wavefront OBJ Exporter v0.97b - (c)2007 guruware
# File Created: 20.10.2017 10:06:06

mtllib banc.mtl

#
# object Box003
#

v  -14.8405 15.9725 -0.7927
v  -14.8405 18.5242 -0.0568
v  14.9859 18.5242 -0.0568
v  14.9859 15.9725 -0.7927
v  -14.8405 15.8274 -0.4444
v  14.9859 15.8274 -0.4444
v  14.9859 18.3791 0.2916
v  -14.8405 18.3791 0.2916
v  -14.8405 12.4108 -1.6603
v  -14.8405 14.9448 -0.8656
v  14.9859 14.9448 -0.8656
v  14.9859 12.4108 -1.6603
v  -14.8405 12.2576 -1.3154
v  14.9859 12.2576 -1.3154
v  14.9859 14.7917 -0.5207
v  -14.8405 14.7917 -0.5207
v  12.7601 2.1934 -0.6681
v  12.7601 2.1934 -1.8209
v  13.9129 2.1934 -1.8209
v  13.9129 2.1934 -0.6681
v  12.7601 18.3019 1.4911
v  13.9129 18.3019 1.4911
v  13.9129 18.3019 0.3383
v  12.7601 18.3019 0.3383
v  13.9129 10.2477 -0.6681
v  12.7601 10.2477 -0.6681
v  13.9129 10.2477 -1.8209
v  12.7601 10.2477 -1.8209
v  -14.8405 9.5527 -5.4375
v  -14.8405 9.5497 -2.3455
v  14.9859 9.5497 -2.3455
v  14.9859 9.5527 -5.4375
v  -14.8405 9.1779 -5.4880
v  14.9859 9.1779 -5.4880
v  14.9859 9.1748 -2.3960
v  -14.8405 9.1748 -2.3960
v  -14.8405 9.5527 -9.0597
v  -14.8405 9.5497 -5.9677
v  14.9859 9.5497 -5.9677
v  14.9859 9.5527 -9.0597
v  -14.8405 9.1779 -9.1102
v  14.9859 9.1779 -9.1102
v  14.9859 9.1748 -6.0182
v  -14.8405 9.1748 -6.0182
v  12.7973 2.1861 -7.9170
v  12.7973 2.1861 -9.0698
v  13.9501 2.1861 -9.0698
v  13.9501 2.1861 -7.9170
v  12.7973 9.2582 -7.9170
v  13.9501 9.2582 -7.9170
v  13.9501 9.2582 -9.0698
v  12.7973 9.2582 -9.0698
v  -14.0389 2.1861 -7.9467
v  -14.0389 2.1861 -9.0995
v  -12.8861 2.1861 -9.0995
v  -12.8861 2.1861 -7.9467
v  -14.0389 9.2582 -7.9467
v  -12.8861 9.2582 -7.9467
v  -12.8861 9.2582 -9.0995
v  -14.0389 9.2582 -9.0995
v  -14.0296 2.1934 -0.6681
v  -14.0296 2.1934 -1.8209
v  -12.8768 2.1934 -1.8209
v  -12.8768 2.1934 -0.6681
v  -14.0296 18.3019 1.4911
v  -12.8768 18.3019 1.4911
v  -12.8768 18.3019 0.3383
v  -14.0296 18.3019 0.3383
v  -12.8768 10.2477 -0.6681
v  -14.0296 10.2477 -0.6681
v  -12.8768 10.2477 -1.8209
v  -14.0296 10.2477 -1.8209
v  -14.2200 8.0197 -8.2064
v  -14.2200 9.1725 -8.1990
v  -13.0672 9.1725 -8.1990
v  -13.0672 8.0197 -8.2064
v  -14.2200 7.9966 -1.5968
v  -13.0672 7.9966 -1.5968
v  -13.0672 9.1494 -1.5894
v  -14.2200 9.1494 -1.5894
v  12.7558 8.0197 -8.2064
v  12.7558 9.1725 -8.1990
v  13.9086 9.1725 -8.1990
v  13.9086 8.0197 -8.2064
v  12.7558 7.9966 -1.5968
v  13.9086 7.9966 -1.5968
v  13.9086 9.1494 -1.5894
v  12.7558 9.1494 -1.5894
# 88 vertices

vn 0.0000 0.3846 -0.9231
vn 0.0000 -0.3846 0.9231
vn 0.0000 -0.9608 -0.2771
vn 1.0000 0.0000 -0.0000
vn 0.0000 0.9608 0.2771
vn -1.0000 0.0000 -0.0000
vn 0.0000 0.4200 -0.9121
vn 0.0000 -0.4200 0.9121
vn 0.0000 -0.9551 -0.2905
vn 0.0000 0.9551 0.2905
vn 0.0000 -1.0254 -0.0449
vn 0.0000 1.0254 0.0449
vn 0.0000 0.0695 0.9520
vn 0.0000 -0.1460 0.9624
vn 0.0000 -0.0695 -0.9520
vn 0.0000 0.1460 -0.9624
vn 0.0000 -0.3552 0.9311
vn 0.0000 0.3552 -0.9311
vn 0.0000 1.0254 0.0455
vn 0.0000 -1.0254 -0.0455
vn 0.0000 0.1473 -0.9624
vn 0.0000 -0.1473 0.9624
vn 0.0000 -0.0596 -0.9534
vn 0.0000 0.0596 0.9534
vn 0.0000 -1.0251 -0.0470
vn 0.0000 1.0251 0.0470
# 26 vertex normals

vt 1.0000 0.0000 0.0000
vt 1.0000 3.8736 0.0000
vt -39.0220 3.8736 0.0000
vt -39.0220 0.0000 0.0000
vt 0.0000 0.0000 0.0000
vt 40.0220 0.0000 0.0000
vt 40.0220 3.8736 0.0000
vt 0.0000 3.8736 0.0000
vt 40.0220 0.8811 0.0000
vt 0.0000 0.8811 0.0000
vt 3.8736 0.0000 0.0000
vt 3.8736 0.8811 0.0000
vt 1.0000 1.6746 0.0000
vt -0.6746 1.6746 0.0000
vt -0.6746 0.0000 0.0000
vt 1.6746 0.0000 0.0000
vt 1.6746 1.6746 0.0000
vt 0.0000 1.6746 0.0000
vt 1.6746 9.8248 0.0000
vt 0.0000 9.8248 0.0000
vt 1.6746 19.6495 0.0000
vt 0.0000 19.6495 0.0000
# 22 texture coords

g Box003
usemtl wire_089021003
s 2
f 1/1/1 2/2/1 3/3/1 4/4/1 
s 4
f 5/5/2 6/6/2 7/7/2 8/8/2 
s 8
f 1/5/3 4/6/3 6/9/3 5/10/3 
s 16
f 4/5/4 3/11/4 7/12/4 6/10/4 
s 32
f 3/5/5 2/6/5 8/9/5 7/10/5 
s 64
f 2/5/6 1/11/6 5/12/6 8/10/6 
s 2
f 9/1/7 10/2/7 11/3/7 12/4/7 
s 4
f 13/5/8 14/6/8 15/7/8 16/8/8 
s 8
f 9/5/9 12/6/9 14/9/9 13/10/9 
s 16
f 12/5/4 11/11/4 15/12/4 14/10/4 
s 32
f 11/5/10 10/6/10 16/9/10 15/10/10 
s 64
f 10/5/6 9/11/6 13/12/6 16/10/6 
s 2
f 17/1/11 18/13/11 19/14/11 20/15/11 
s 4
f 21/5/12 22/16/12 23/17/12 24/18/12 
s 8
f 20/16/13 25/19/14 26/20/14 17/5/13 
s 16
f 19/16/4 27/19/4 25/20/4 20/5/4 
s 32
f 18/16/15 28/19/16 27/20/16 19/5/15 
s 64
f 17/16/6 26/19/6 28/20/6 18/5/6 
s 8
f 22/21/17 21/22/17 26/20/14 25/19/14 
s 16
f 23/21/4 22/22/4 25/20/4 27/19/4 
s 32
f 24/21/18 23/22/18 27/20/16 28/19/16 
s 64
f 21/21/6 24/22/6 28/20/6 26/19/6 
s 2
f 29/1/19 30/2/19 31/3/19 32/4/19 
s 4
f 33/5/20 34/6/20 35/7/20 36/8/20 
s 8
f 29/5/21 32/6/21 34/9/21 33/10/21 
s 16
f 32/5/4 31/11/4 35/12/4 34/10/4 
s 32
f 31/5/22 30/6/22 36/9/22 35/10/22 
s 64
f 30/5/6 29/11/6 33/12/6 36/10/6 
s 2
f 37/1/19 38/2/19 39/3/19 40/4/19 
s 4
f 41/5/20 42/6/20 43/7/20 44/8/20 
s 8
f 37/5/21 40/6/21 42/9/21 41/10/21 
s 16
f 40/5/4 39/11/4 43/12/4 42/10/4 
s 32
f 39/5/22 38/6/22 44/9/22 43/10/22 
s 64
f 38/5/6 37/11/6 41/12/6 44/10/6 
s 2
f 45/1/11 46/13/11 47/14/11 48/15/11 
s 4
f 49/5/12 50/16/12 51/17/12 52/18/12 
s 8
f 45/5/13 48/16/13 50/21/13 49/22/13 
s 16
f 48/5/4 47/16/4 51/21/4 50/22/4 
s 32
f 47/5/15 46/16/15 52/21/15 51/22/15 
s 64
f 46/5/6 45/16/6 49/21/6 52/22/6 
s 2
f 53/1/11 54/13/11 55/14/11 56/15/11 
s 4
f 57/5/12 58/16/12 59/17/12 60/18/12 
s 8
f 53/5/13 56/16/13 58/21/13 57/22/13 
s 16
f 56/5/4 55/16/4 59/21/4 58/22/4 
s 32
f 55/5/15 54/16/15 60/21/15 59/22/15 
s 64
f 54/5/6 53/16/6 57/21/6 60/22/6 
s 2
f 61/1/11 62/13/11 63/14/11 64/15/11 
s 4
f 65/5/12 66/16/12 67/17/12 68/18/12 
s 8
f 64/16/13 69/19/14 70/20/14 61/5/13 
s 16
f 63/16/4 71/19/4 69/20/4 64/5/4 
s 32
f 62/16/15 72/19/16 71/20/16 63/5/15 
s 64
f 61/16/6 70/19/6 72/20/6 62/5/6 
s 8
f 66/21/17 65/22/17 70/20/14 69/19/14 
s 16
f 67/21/4 66/22/4 69/20/4 71/19/4 
s 32
f 68/21/18 67/22/18 71/20/16 72/19/16 
s 64
f 65/21/6 68/22/6 72/20/6 70/19/6 
s 2
f 73/1/23 74/13/23 75/14/23 76/15/23 
s 4
f 77/5/24 78/16/24 79/17/24 80/18/24 
s 8
f 73/5/25 76/16/25 78/21/25 77/22/25 
s 16
f 76/5/4 75/16/4 79/21/4 78/22/4 
s 32
f 75/5/26 74/16/26 80/21/26 79/22/26 
s 64
f 74/5/6 73/16/6 77/21/6 80/22/6 
s 2
f 81/1/23 82/13/23 83/14/23 84/15/23 
s 4
f 85/5/24 86/16/24 87/17/24 88/18/24 
s 8
f 81/5/25 84/16/25 86/21/25 85/22/25 
s 16
f 84/5/4 83/16/4 87/21/4 86/22/4 
s 32
f 83/5/26 82/16/26 88/21/26 87/22/26 
s 64
f 82/5/6 81/16/6 85/21/6 88/22/6 
# 68 polygons

