# 3ds Max Wavefront OBJ Exporter v0.97b - (c)2007 guruware
# File Created: 12.10.2017 16:30:09

mtllib ColBreack.mtl

#
# object Box001
#

v  -5.0929088593 0.6072213054 7.9091358185
v  -4.0478115082 0.6743540764 4.3518061638
v  -0.2880346775 0.5622140169 4.2396659851
v  -0.6159670353 0.3045197427 8.2118377686
v  -0.5240690708 1.7348411083 7.9806785583
v  -4.5641365051 1.6008179188 7.7127795219
v  -0.8092107773 1.6144140959 4.4519720078
v  -3.9919643402 1.3196216822 5.1323547363
v  -2.0704026222 6.1495108604 6.4529013634
v  -3.2985777855 6.1494045258 6.4183793068
v  -2.0848255157 6.1494669914 5.7553763390
v  -3.3564805984 6.1495838165 5.7174835205
v  -1.5302462578 7.9392843246 7.0031404495
v  -4.1692199707 7.8064842224 7.2890577316
v  -2.3013100624 8.3021116257 6.0095357895
v  -3.9105412960 7.9225325584 5.1546030045
v  -1.2350637913 22.3495807648 7.2881894112
v  -4.0484633446 22.2940082550 7.1727051735
v  -1.1464821100 22.3906555176 4.8202071190
v  -4.2226252556 22.3756752014 4.8493251801
v  -2.1071028709 23.1884403229 6.1569561958
v  -2.5565199852 22.8279953003 6.1758832932
v  -2.3040847778 23.2351284027 5.7465052605
v  -2.9542520046 22.6752986908 6.7210388184
# 24 vertices

vn -0.0476730242 -0.9976013303 -0.0501880534
vn -0.0306314789 -0.9991425276 -0.0278546251
vn -0.0489955842 -0.9974485040 -0.0519217141
vn -0.0625992939 -0.9955979586 -0.0697573721
vn -0.0676296875 0.2121663541 0.9748905897
vn -0.0555997603 0.1627765894 0.9850951433
vn -0.0579860322 0.1725596488 0.9832907915
vn -0.0719876960 0.2301024944 0.9705001712
vn 0.9986531734 0.0334222056 -0.0396833085
vn 0.8994597197 0.4249746203 0.1018273011
vn 0.9417282939 0.3297403157 0.0664762855
vn 0.9940418005 -0.0764270648 -0.0777165368
vn -0.1757167727 0.2598270476 -0.9495333433
vn 0.0039749579 0.7705896497 -0.6373192072
vn -0.0371645354 0.6806280017 -0.7316859365
vn -0.2161049694 0.0891416818 -0.9722923636
vn -0.8893699646 0.3870597482 -0.2433225811
vn -0.8745082021 0.4161753058 -0.2490652800
vn -0.8770277500 0.4114009440 -0.2481362671
vn -0.8987943530 0.3672810793 -0.2393183708
vn -0.0622666143 0.2979678810 0.9525429606
vn 0.9515038133 0.2981159687 -0.0759426281
vn -0.1522872150 0.1853603125 -0.9707987309
vn -0.9686062932 0.1836674213 -0.1675356328
vn 0.0729578212 -0.3741196394 0.9245061278
vn 0.9077895880 0.0110194730 -0.4192811847
vn 0.2979735434 -0.0165709276 -0.9544302821
vn -0.9230332375 -0.3761438429 -0.0807804614
vn 0.0314595550 -0.0062874919 0.9994852543
vn 0.9783051610 -0.0561037175 -0.1994276196
vn 0.1779278815 -0.0566982068 -0.9824087024
vn -0.9997908473 -0.0068902480 -0.0192607567
vn -0.1235224977 0.8498818278 0.5122917891
vn 0.6384184361 0.7696893215 -0.0005748493
vn -0.2361395955 0.9026724696 -0.3597507477
vn -0.3060949743 0.9500770569 0.0604929999
# 36 vertex normals

vt 1.0000000000 0.0000000000 0.0000000000
vt 1.0000000000 1.0000000000 0.0000000000
vt 0.0000000000 1.0000000000 0.0000000000
vt 0.0000000000 0.0000000000 0.0000000000
# 4 texture coords

g Box001
usemtl wire_225198087
s 2
f 1/1/1 2/2/2 3/3/3 4/4/4 
s 8
f 1/4/5 4/1/6 5/2/7 6/3/8 
s 16
f 4/4/9 3/1/10 7/2/11 5/3/12 
s 32
f 3/4/13 2/1/14 8/2/15 7/3/16 
s 64
f 2/4/17 1/1/18 6/2/19 8/3/20 
s off
f 6/4/21 5/1/21 9/1/21 10/4/21 
f 5/1/22 7/2/22 11/2/22 9/1/22 
f 7/2/23 8/3/23 12/3/23 11/2/23 
f 8/3/24 6/4/24 10/4/24 12/3/24 
f 10/4/25 9/1/25 13/1/25 14/4/25 
f 9/1/26 11/2/26 15/2/26 13/1/26 
f 11/2/27 12/3/27 16/3/27 15/2/27 
f 12/3/28 10/4/28 14/4/28 16/3/28 
f 14/4/29 13/1/29 17/1/29 18/4/29 
f 13/1/30 15/2/30 19/2/30 17/1/30 
f 15/2/31 16/3/31 20/3/31 19/2/31 
f 16/3/32 14/4/32 18/4/32 20/3/32 
f 18/4/33 17/1/33 21/1/33 22/4/33 
f 17/1/34 19/2/34 23/2/34 21/1/34 
f 19/2/35 20/3/35 24/3/35 23/2/35 
f 20/3/36 18/4/36 22/4/36 24/3/36 
# 21 polygons

