# 3ds Max Wavefront OBJ Exporter v0.97b - (c)2007 guruware
# File Created: 12.10.2017 13:42:50

mtllib CraveAlien.mtl

#
# object Box001
#

v  -0.2939665318 0.0000000000 1.8133171797
v  -0.2939665318 0.0000000000 1.5428744555
v  -0.1150360256 0.0000000000 1.5428744555
v  -0.1150360256 0.0000000000 1.8133171797
v  0.0638945028 0.0000000000 1.5428744555
v  0.0638945028 0.0000000000 1.8133171797
v  0.2428250313 0.0000000000 1.5428744555
v  0.2428250313 0.0000000000 1.8133171797
v  0.4217555523 0.0000000000 1.5428744555
v  0.4217555523 0.0000000000 1.8133171797
v  -0.2939665318 0.0000000000 1.2724317312
v  -0.1150360256 0.0000000000 1.2724317312
v  0.0638945028 0.0000000000 1.2724317312
v  0.2428250313 0.0000000000 1.2724317312
v  0.4217555523 0.0000000000 1.2724317312
v  -0.2939665318 0.0000000000 1.0019891262
v  -0.1150360256 0.0000000000 1.0019891262
v  0.0638945028 0.0000000000 1.0019891262
v  0.2428250313 0.0000000000 1.0019891262
v  0.4217555523 0.0000000000 1.0019891262
v  -0.2939665318 0.0000000000 0.5070186853
v  -0.1150360256 0.0000000000 0.5070186853
v  0.0638945028 0.0000000000 0.5070186853
v  0.2428250313 0.0000000000 0.5070186853
v  0.4217555523 0.0000000000 0.5070186853
v  -0.2939665318 0.0000000000 0.2202498466
v  -0.1150360256 0.0000000000 0.2202498466
v  0.0638945028 0.0000000000 0.2202498466
v  0.2428250313 0.0000000000 0.2202498466
v  0.4217555523 0.0000000000 0.2202498466
v  -0.2939665318 0.0000000000 0.1906610578
v  -0.1150360256 0.0000000000 0.1906610578
v  0.0638945028 0.0000000000 0.1906610578
v  0.2428250313 0.0000000000 0.1906610578
v  0.4217555523 0.0000000000 0.1906610578
v  -0.2878300250 0.1739263535 1.8071806431
v  -0.2766976058 0.1739263535 1.8071806431
v  -0.2766976058 0.1739263535 1.5428744555
v  -0.2878300250 0.1739263535 1.5428744555
v  -0.2337421030 0.2291548103 1.7764980793
v  0.0638945028 0.2291548103 1.7764980793
v  0.0638945028 0.2291548103 1.5428744555
v  -0.2337421030 0.2291548103 1.5428744555
v  0.3576977849 0.2291548103 1.7764980793
v  0.3576977849 0.2291548103 1.5428744555
v  0.4006532729 0.1739263535 1.8071806431
v  0.4156190455 0.1739263535 1.8071806431
v  0.4156190455 0.1739263535 1.5428744555
v  0.4006532729 0.1739263535 1.5428744555
v  -0.2766976058 0.1739263535 1.2724317312
v  -0.2878300250 0.1739263535 1.2724317312
v  0.0638945028 0.2291548103 1.2724317312
v  -0.2337421030 0.2291548103 1.2724317312
v  0.3576977849 0.2291548103 1.2724317312
v  0.4156190455 0.1739263535 1.2724317312
v  0.4006532729 0.1739263535 1.2724317312
v  -0.2766976058 0.1739263535 1.0019891262
v  -0.2878300250 0.1739263535 1.0019891262
v  0.0638945028 0.2291548103 0.6134735942
v  -0.2337421030 0.2291548103 0.6134735942
v  0.3576977849 0.2291548103 0.6134735942
v  0.4156190455 0.1739263535 1.0019891262
v  0.4006532729 0.1739263535 1.0019891262
v  -0.2766976058 0.1739263535 0.5070279241
v  -0.2878300250 0.1739263535 0.5069908500
v  -0.2705610693 0.1432438344 0.5766546130
v  0.0638945028 0.1432438344 0.5766546130
v  0.0638945028 0.1432438344 0.5070186853
v  -0.1033332944 0.1432438344 0.5070186853
v  -0.2705610693 0.1432438344 0.5070186853
v  0.3945167661 0.1432438344 0.5766546130
v  0.3945167661 0.1432438344 0.5070186853
v  0.2292056084 0.1432438344 0.5070186853
v  0.4156190455 0.1739263535 0.5070186853
v  0.4006532729 0.1739263535 0.5070462823
v  -0.2775442302 0.1739263535 0.2258421034
v  -0.2903725207 0.1739263535 0.2262108773
v  -0.1227076799 0.9348519444 0.4211076796
v  0.0016937733 0.9348519444 0.4211076796
v  -0.0601938963 0.9348519444 0.3049001694
v  0.1252648681 0.9348486066 0.4194788635
v  0.2480055839 0.9348486066 0.4194788635
v  0.1876474470 0.9343576431 0.3029526174
v  0.4156190455 0.1739263535 0.2248070240
v  0.4031949639 0.1739263535 0.2248070240
v  -0.2898623049 0.1677898467 0.2140864879
v  -0.2714534700 0.1677898467 0.2133906931
v  -0.2705340087 0.1677898467 0.1960747689
v  -0.2883430123 0.1677898467 0.1967748702
v  0.0647455305 0.1677898467 0.2125339955
v  0.0639091954 0.1677898467 0.1952181906
v  0.3971134722 0.1677898467 0.2125339955
v  0.3945167661 0.1677898467 0.1952181906
v  0.4156190455 0.1677898467 0.2125339955
v  0.4156190455 0.1677898467 0.1952181906
v  -0.2705610693 0.1432438344 1.8133171797
v  -0.2939665318 0.1432438344 1.8133171797
v  0.0638945028 0.1432438344 1.8133171797
v  0.3945167661 0.1432438344 1.8133171797
v  0.4217555523 0.1432438344 1.8133171797
v  0.4217555523 0.1432438344 1.5428744555
v  0.4217555523 0.1432438344 1.2724317312
v  0.4217555523 0.1432438344 1.0019891262
v  0.4217555523 0.1432438344 0.5070186853
v  0.4217555523 0.1432438344 0.2186705172
v  0.4217555523 0.1432438344 0.1890816689
v  0.2428250313 0.1432438344 0.1890816689
v  0.0638945028 0.1432438344 0.1890816689
v  -0.1150360107 0.1432438344 0.1899383515
v  -0.2939665318 0.1432438344 0.1906610578
v  -0.2965632975 0.1432438344 0.2202498466
v  -0.2939665318 0.1432438344 0.5070186853
v  -0.2939665318 0.1432438344 1.0019891262
v  -0.2939665318 0.1432438344 1.2724317312
v  -0.2939665318 0.1432438344 1.5428744555
v  -0.2714266777 0.1432438344 0.2195271552
v  0.0647600815 0.1432438344 0.2186705172
v  0.3971134722 0.1565990448 0.2186705172
v  -0.2705610693 0.1432438344 1.5428744555
v  -0.2705610693 0.1432438344 1.2724317312
v  0.3945167661 0.1432438344 1.5428744555
v  0.3945167661 0.1432438344 1.2724317312
v  -0.0605069511 0.5482527018 0.4211076796
v  -0.1227076799 0.5482527018 0.4211076796
v  -0.1849084049 0.5482527018 0.4211076796
v  0.0638945028 0.4128426015 0.4982423782
v  0.1979268789 0.4128426015 0.4982423782
v  0.1670393795 0.4954635203 0.4931407869
v  0.0638945028 0.4954635203 0.4931407869
v  0.3104253411 0.5472707748 0.3045814633
v  0.3093759716 0.5482527018 0.4211076796
v  0.0648695305 0.5482527018 0.3045814633
v  0.1876474470 0.5477617383 0.3045814633
v  -0.1852573305 0.5482527018 0.3052188456
v  -0.0601938963 0.5482527018 0.3049001694
v  -0.0409357920 0.4954635203 0.4931407869
v  -0.0720090270 0.4128426015 0.4982423782
v  0.2480055839 0.5482527018 0.4211076796
v  0.1866352409 0.5482527018 0.4211076796
v  0.2156059742 0.4017274976 0.5173732638
v  0.0638945028 0.4017274976 0.5173732638
v  0.1755594611 0.5088478327 0.5107588768
v  0.1252648681 0.5482527018 0.4211076796
v  0.0638945028 0.5482527018 0.4211076796
v  0.0638945028 0.5088478327 0.5107588768
v  0.0016937733 0.5482527018 0.4211076796
v  -0.0494379885 0.5088478327 0.5107588768
v  -0.0897252932 0.4017274976 0.5173732638
v  0.1979268789 0.4139772058 0.5166168809
v  0.0638945028 0.4139772058 0.5166168809
v  0.1670393795 0.4965980947 0.5115153193
v  0.0638945028 0.4965980947 0.5115153193
v  -0.0409357920 0.4965980947 0.5115153193
v  -0.0720090270 0.4139772058 0.5166168809
v  -0.0601938963 0.7323476076 0.3049001694
v  0.0016937733 0.7323476076 0.4211076796
v  -0.1227076799 0.7323476076 0.4211076796
v  0.1876474470 0.7318550348 0.3038058281
v  0.2480055839 0.7323459983 0.4203320444
v  0.1252648681 0.7323459983 0.4203320444
v  -0.0601938963 0.8182584643 0.3049001694
v  0.0016937733 0.8182584643 0.4211076796
v  -0.1466605067 0.7323476076 0.2583854795
v  -0.2091743052 0.7323476076 0.3745929897
v  -0.2091743052 0.8182584643 0.3745929897
v  -0.1466605067 0.8182584643 0.2583854795
v  -0.1227076799 0.8182584643 0.4211076796
v  0.3351882398 0.7321557403 0.3751740456
v  0.2748300731 0.7316647768 0.2586478293
v  0.2748300731 0.8175749779 0.2582858503
v  0.3351882398 0.8180659413 0.3748120964
v  0.1252648681 0.8182561994 0.4199700952
v  0.1876474470 0.8177652359 0.3034438789
v  0.2480055839 0.8182561994 0.4199700952
# 174 vertices

vn 0.0000000000 -1.0000000000 -0.0000000000
vn 0.0000000000 1.0000000000 -0.0000000000
vn 0.0000000000 0.9999911189 -0.0042131902
vn 0.0000000000 0.9999911189 -0.0042131906
vn 0.0000000000 0.0000000000 1.0000000000
vn 1.0000000000 0.0000000000 -0.0000000000
vn 0.0000000000 -0.0110251447 -0.9999392033
vn 0.0000000000 -0.0110251466 -0.9999392033
vn -0.0013649941 -0.0097401440 -0.9999516606
vn -0.0023936997 -0.0110251131 -0.9999363422
vn -0.0011515616 -0.0039610239 -0.9999914765
vn -0.0030482328 -0.0063302116 -0.9999753237
vn 0.0000000000 0.0000000000 -1.0000000000
vn -0.0017358105 -0.0021682573 -0.9999961257
vn -0.9998108149 -0.0157742146 -0.0113788294
vn -0.9998754859 -0.0154526709 0.0031919088
vn -0.9993845820 -0.0102513181 -0.0335457698
vn -0.9961711168 0.0000000000 -0.0874247625
vn -1.0000000000 0.0000000000 -0.0000000000
vn -0.9999955297 -0.0026730690 0.0013352244
vn 0.0316153578 0.2388664931 0.9705376625
vn 0.0024720365 0.2425364107 0.9701392055
vn -0.0065256646 0.3247982562 0.9457607269
vn 0.1049553975 0.3390871584 0.9348818660
vn 0.9701424241 0.2425360531 -0.0000000000
vn 0.0000000000 0.2425360829 -0.9701424837
vn 0.0000000000 0.2425360531 -0.9701423645
vn -0.0032455397 0.2328463942 -0.9725080729
vn -0.0070515359 0.2217872888 -0.9750695825
vn -0.9664279819 0.2425356805 -0.0848143324
vn 0.0000000000 0.1961164027 0.9805806279
vn 0.9805806279 0.1961164474 -0.0000000000
vn 0.9805805683 0.1961164176 -0.0000000000
vn 0.9805806875 0.1961164325 -0.0000000000
vn 0.9805762172 0.1961165518 -0.0029524106
vn -0.0281797741 0.1961162686 -0.9801756740
vn -0.9805404544 0.1961165965 0.0088789267
vn -0.9805806875 0.1961164474 -0.0000000000
vn -0.9805805683 0.1961164176 -0.0000000000
vn -0.9805806279 0.1961164474 -0.0000000000
vn 0.0000000000 0.1961164325 0.9805806875
vn 0.9805806279 0.1961164176 -0.0000000000
vn 0.0889187083 0.2467857301 -0.9649819732
vn -0.9690153599 0.2469829470 -0.0029455617
vn -0.9805806279 0.1961164325 -0.0000000000
vn -0.9805806279 0.1961164176 -0.0000000000
vn 0.0000000000 0.2075042576 0.9782340527
vn 0.0000000000 0.0616295300 0.9980990887
vn 0.9773538709 0.2110615969 0.0152517594
vn -0.0045091915 0.2106069773 -0.9775604606
vn -0.0024926979 0.2075042427 -0.9782309532
vn -0.9782297015 0.2075042129 0.0029453274
vn 0.0000000000 0.2075042725 0.9782341123
vn 0.0000000000 -0.0400269702 0.9991986752
vn 0.9864794016 0.1455202252 -0.0753815249
vn 0.0000000000 0.9154718518 0.4023822248
vn 0.0000000000 0.9154717922 0.4023821652
vn -0.9862685800 0.1461764872 -0.0768560395
vn 0.0000000000 -0.0400269628 0.9991986156
vn 0.0000000000 0.0616315752 0.9980989695
vn 0.0000000000 0.0616297983 0.9980990887
vn 0.0000000000 0.0616315827 0.9980989695
vn 0.0000000000 0.0616315790 0.9980989099
vn 0.0000000000 0.0616298020 0.9980990887
vn 0.0000000000 0.0616315827 0.9980989099
vn 0.0000000000 0.9980990291 -0.0616305247
vn -0.9369022846 -0.3489268124 0.0215455126
vn 0.0000000000 -0.9980989695 0.0616305210
vn 0.0000000000 -0.9980990291 0.0616305284
vn 0.9362124801 -0.3507666290 0.0216590948
vn -0.9191450477 0.3939193487 -0.0000000000
vn 0.0000000000 0.3939192593 0.9191450477
vn 0.0000000000 0.3939192891 0.9191450477
vn 0.9191451073 0.3939193189 -0.0000000000
vn 0.9191450477 0.3939192593 -0.0000000000
vn 0.0000000000 0.3939192891 -0.9191450477
vn 0.0000000000 0.3939192593 -0.9191450477
vn -0.9191450477 0.3939192593 -0.0000000000
vn 0.0010272918 0.9999989867 -0.0010043851
vn 0.0020116181 0.9999979734 0.0000168322
vn 0.0018925938 0.9999707341 -0.0074124006
vn 0.0000000000 0.9999644756 -0.0084261568
vn 0.0027625887 0.9999720454 -0.0069463807
vn 0.0034023158 0.9999870658 -0.0037785671
vn 0.8826355338 0.0000000000 -0.4700579345
vn -0.8806592226 0.0000000000 -0.4737502933
vn 0.8879518509 -0.0019377945 -0.4599324167
vn -0.8816145658 -0.0019884922 -0.4719659686
vn 0.0000000000 0.0042131711 0.9999911785
vn 0.8879517913 -0.0019378319 -0.4599324167
vn -0.8816145062 -0.0019885455 -0.4719659090
vn 0.0000000000 0.0042132805 0.9999911189
vn 0.8826355934 0.0000000000 -0.4700579345
vn -0.8806592822 0.0000000000 -0.4737503231
vn 0.8879517913 -0.0019378274 -0.4599323571
vn -0.8816145658 -0.0019885306 -0.4719659388
vn 0.0000000000 0.0042132530 0.9999911785
vn 0.0000000000 -0.9999999404 -0.0000000000
vn -0.4737504423 0.0000000000 0.8806590438
vn 0.0000000000 0.9999999404 -0.0000000000
vn 0.4737504423 0.0000000000 -0.8806591630
vn 0.0000000266 -0.9999911785 0.0042131771
vn -0.4599366188 -0.0037411887 -0.8879438639
vn -0.0000000266 0.9999911785 -0.0042131771
vn 0.4599365890 0.0037411882 0.8879439235
# 105 vertex normals

vt 1.0000000000 0.0000000000 0.0000000000
vt 1.0000000000 0.1666666716 0.0000000000
vt 0.7500000000 0.1666666716 0.0000000000
vt 0.7500000000 0.0000000000 0.0000000000
vt 0.5000000000 0.1666666716 0.0000000000
vt 0.5000000000 0.0000000000 0.0000000000
vt 0.2500000000 0.1666666716 0.0000000000
vt 0.2500000000 0.0000000000 0.0000000000
vt 0.0000000000 0.1666666716 0.0000000000
vt 0.0000000000 0.0000000000 0.0000000000
vt 1.0000000000 0.3333333433 0.0000000000
vt 0.7500000000 0.3333333433 0.0000000000
vt 0.5000000000 0.3333333433 0.0000000000
vt 0.2500000000 0.3333333433 0.0000000000
vt 0.0000000000 0.3333333433 0.0000000000
vt 1.0000000000 0.5000000000 0.0000000000
vt 0.7500000000 0.5000000000 0.0000000000
vt 0.5000000000 0.5000000000 0.0000000000
vt 0.2500000000 0.5000000000 0.0000000000
vt 0.0000000000 0.5000000000 0.0000000000
vt 1.0000000000 0.6666666865 0.0000000000
vt 0.7500000000 0.6666666865 0.0000000000
vt 0.5000000000 0.6666666865 0.0000000000
vt 0.2500000000 0.6666666865 0.0000000000
vt 0.0000000000 0.6666666865 0.0000000000
vt 1.0000000000 0.8333333731 0.0000000000
vt 0.7500000000 0.8333333731 0.0000000000
vt 0.5000000000 0.8333333731 0.0000000000
vt 0.2500000000 0.8333333731 0.0000000000
vt 0.0000000000 0.8333333731 0.0000000000
vt 1.0000000000 1.0000000000 0.0000000000
vt 0.7500000000 1.0000000000 0.0000000000
vt 0.5000000000 1.0000000000 0.0000000000
vt 0.2500000000 1.0000000000 0.0000000000
vt 0.0000000000 1.0000000000 0.0000000000
vt 0.3750000000 0.6666666865 0.0000000000
vt 0.6250000000 0.6666666865 0.0000000000
vt 0.3125000000 0.6666666865 0.0000000000
vt 0.4375000000 0.6666666865 0.0000000000
vt 0.3750000000 0.8333333731 0.0000000000
vt 0.5625000000 0.6666666865 0.0000000000
vt 0.6875000000 0.6666666865 0.0000000000
vt 0.6250000000 0.8333333731 0.0000000000
vt 0.1666666716 0.0000000000 0.0000000000
vt 0.1666666716 1.0000000000 0.0000000000
vt 0.3333333433 0.0000000000 0.0000000000
vt 0.3333333433 1.0000000000 0.0000000000
vt 0.6666666865 0.0000000000 0.0000000000
vt 0.6666666865 1.0000000000 0.0000000000
vt 0.8333333731 0.0000000000 0.0000000000
vt 0.8333333731 1.0000000000 0.0000000000
# 51 texture coords

g Box001
usemtl 09___Default
s 2
f 1/1/1 2/2/1 3/3/1 4/4/1 
f 4/4/1 3/3/1 5/5/1 6/6/1 
f 6/6/1 5/5/1 7/7/1 8/8/1 
f 8/8/1 7/7/1 9/9/1 10/10/1 
f 2/2/1 11/11/1 12/12/1 3/3/1 
f 3/3/1 12/12/1 13/13/1 5/5/1 
f 5/5/1 13/13/1 14/14/1 7/7/1 
f 7/7/1 14/14/1 15/15/1 9/9/1 
f 11/11/1 16/16/1 17/17/1 12/12/1 
f 12/12/1 17/17/1 18/18/1 13/13/1 
f 13/13/1 18/18/1 19/19/1 14/14/1 
f 14/14/1 19/19/1 20/20/1 15/15/1 
f 16/16/1 21/21/1 22/22/1 17/17/1 
f 17/17/1 22/22/1 23/23/1 18/18/1 
f 18/18/1 23/23/1 24/24/1 19/19/1 
f 19/19/1 24/24/1 25/25/1 20/20/1 
f 21/21/1 26/26/1 27/27/1 22/22/1 
f 22/22/1 27/27/1 28/28/1 23/23/1 
f 23/23/1 28/28/1 29/29/1 24/24/1 
f 24/24/1 29/29/1 30/30/1 25/25/1 
f 26/26/1 31/31/1 32/32/1 27/27/1 
f 27/27/1 32/32/1 33/33/1 28/28/1 
f 28/28/1 33/33/1 34/34/1 29/29/1 
f 29/29/1 34/34/1 35/35/1 30/30/1 
s 4
f 36/10/2 37/8/2 38/7/2 39/9/2 
f 40/8/2 41/6/2 42/5/2 43/7/2 
f 41/6/2 44/4/2 45/3/2 42/5/2 
f 46/4/2 47/1/2 48/2/2 49/3/2 
f 39/9/2 38/7/2 50/14/2 51/15/2 
f 43/7/2 42/5/2 52/13/2 53/14/2 
f 42/5/2 45/3/2 54/12/2 52/13/2 
f 49/3/2 48/2/2 55/11/2 56/12/2 
f 51/15/2 50/14/2 57/19/2 58/20/2 
f 53/14/2 52/13/2 59/18/2 60/19/2 
f 52/13/2 54/12/2 61/17/2 59/18/2 
f 56/12/2 55/11/2 62/16/2 63/17/2 
f 58/20/2 57/19/2 64/24/2 65/25/2 
f 66/19/2 67/18/2 68/23/2 69/36/2 70/24/2 
f 67/18/2 71/17/2 72/22/2 73/37/2 68/23/2 
f 63/17/2 62/16/2 74/21/2 75/22/2 
f 65/25/2 64/24/2 76/29/2 77/30/2 
f 78/38/2 79/39/2 80/40/2 
f 81/41/3 82/42/4 83/43/4 
f 75/22/2 74/21/2 84/26/2 85/27/2 
f 86/30/2 87/29/2 88/34/2 89/35/2 
f 87/29/2 90/28/2 91/33/2 88/34/2 
f 90/28/2 92/27/2 93/32/2 91/33/2 
f 92/27/2 94/26/2 95/31/2 93/32/2 
s 8
f 1/10/5 4/8/5 96/34/5 97/35/5 
f 4/8/5 6/6/5 98/33/5 96/34/5 
f 6/6/5 8/4/5 99/32/5 98/33/5 
f 8/4/5 10/1/5 100/31/5 99/32/5 
s 16
f 10/10/6 9/44/6 101/45/6 100/35/6 
f 9/44/6 15/46/6 102/47/6 101/45/6 
f 15/46/6 20/6/6 103/33/6 102/47/6 
f 20/6/6 25/48/6 104/49/6 103/33/6 
f 25/48/6 30/50/6 105/51/6 104/49/6 
f 30/50/6 35/1/6 106/31/6 105/51/6 
s 32
f 35/10/7 34/8/7 107/34/7 106/35/8 
f 34/8/7 33/6/9 108/33/10 107/34/7 
f 33/6/9 32/4/11 109/32/12 108/33/10 
f 32/4/11 31/1/13 110/31/14 109/32/12 
s 64
f 31/10/15 26/44/16 111/45/17 110/35/18 
f 26/44/16 21/46/19 112/47/20 111/45/17 
f 21/46/19 16/6/19 113/33/19 112/47/20 
f 16/6/19 11/48/19 114/49/19 113/33/19 
f 11/48/19 2/50/19 115/51/19 114/49/19 
f 2/50/19 1/1/19 97/31/19 115/51/19 
s off
f 111/30/21 116/29/21 87/29/21 86/30/21 
f 116/29/22 117/28/22 90/28/22 87/29/22 
f 117/28/23 118/27/23 92/27/23 90/28/23 
f 118/27/24 105/26/24 94/26/24 92/27/24 
f 105/26/25 106/31/25 95/31/25 94/26/25 
f 106/31/26 107/32/26 93/32/26 95/31/26 
f 107/32/27 108/33/27 91/33/27 93/32/27 
f 108/33/28 109/34/28 88/34/28 91/33/28 
f 109/34/29 110/35/29 89/35/29 88/34/29 
f 110/35/30 111/30/30 86/30/30 89/35/30 
f 97/10/31 96/8/31 37/8/31 36/10/31 
f 96/8/32 119/7/32 38/7/32 37/8/32 
f 119/7/33 120/14/33 50/14/33 38/7/33 
f 120/14/33 66/19/33 57/19/33 50/14/33 
f 66/19/34 70/24/34 64/24/34 57/19/34 
f 70/24/35 116/29/35 76/29/35 64/24/35 
f 116/29/36 111/30/36 77/30/36 76/29/36 
f 111/30/37 112/25/37 65/25/37 77/30/37 
f 112/25/38 113/20/38 58/20/38 65/25/38 
f 113/20/39 114/15/39 51/15/39 58/20/39 
f 114/15/39 115/9/39 39/9/39 51/15/39 
f 115/9/40 97/10/40 36/10/40 39/9/40 
f 121/3/40 99/4/40 46/4/40 49/3/40 
f 99/4/41 100/1/41 47/1/41 46/4/41 
f 100/1/32 101/2/32 48/2/32 47/1/32 
f 101/2/33 102/11/33 55/11/33 48/2/33 
f 102/11/33 103/16/33 62/16/33 55/11/33 
f 103/16/42 104/21/42 74/21/42 62/16/42 
f 104/21/42 105/26/42 84/26/42 74/21/42 
f 105/26/43 118/27/43 85/27/43 84/26/43 
f 118/27/44 72/22/44 75/22/44 85/27/44 
f 72/22/45 71/17/45 63/17/45 75/22/45 
f 71/17/46 122/12/46 56/12/46 63/17/46 
f 122/12/39 121/3/39 49/3/39 56/12/39 
f 69/36/47 123/36/47 124/38/47 125/24/47 70/24/47 
f 126/23/48 127/37/48 128/37/48 129/23/48 
f 72/22/49 118/27/49 130/27/49 131/22/49 
f 118/27/50 117/28/50 132/28/50 133/43/50 130/27/50 
f 117/28/51 116/29/51 134/29/51 135/40/51 132/28/51 
f 116/29/52 70/24/52 125/24/52 134/29/52 
f 126/23/48 129/23/48 136/36/48 137/36/48 
f 73/37/53 72/22/53 131/22/53 138/42/53 139/37/53 
f 68/23/54 73/37/54 140/37/54 141/23/54 
f 73/37/55 139/37/55 142/37/55 140/37/55 
f 143/41/56 144/23/56 145/23/56 142/37/56 139/37/56 
f 146/39/57 123/36/57 147/36/57 145/23/57 144/23/57 
f 123/36/58 69/36/58 148/36/58 147/36/58 
f 69/36/59 68/23/59 141/23/59 148/36/59 
f 141/23/60 140/37/60 149/37/60 150/23/60 
f 140/37/61 142/37/61 151/37/61 149/37/61 
f 142/37/62 145/23/62 152/23/62 151/37/62 
f 145/23/63 147/36/63 153/36/63 152/23/63 
f 147/36/64 148/36/64 154/36/64 153/36/64 
f 148/36/65 141/23/65 150/23/65 154/36/65 
f 150/23/66 149/37/66 127/37/66 126/23/66 
f 149/37/67 151/37/67 128/37/67 127/37/67 
f 151/37/68 152/23/68 129/23/68 128/37/68 
f 152/23/69 153/36/69 136/36/69 129/23/69 
f 153/36/70 154/36/70 137/36/70 136/36/70 
f 154/36/66 150/23/66 126/23/66 137/36/66 
f 119/7/71 96/8/71 40/8/71 43/7/71 
f 96/8/72 98/6/72 41/6/72 40/8/72 
f 98/6/73 99/4/73 44/4/73 41/6/73 
f 99/4/74 121/3/74 45/3/74 44/4/74 
f 121/3/75 122/12/75 54/12/75 45/3/75 
f 122/12/75 71/17/75 61/17/75 54/12/75 
f 71/17/76 67/18/76 59/18/76 61/17/76 
f 67/18/77 66/19/77 60/19/77 59/18/77 
f 66/19/78 120/14/78 53/14/78 60/19/78 
f 120/14/78 119/7/78 43/7/78 53/14/78 
s 4
f 146/39/2 144/23/79 132/28/80 135/40/2 
f 124/38/2 123/36/6 146/39/2 
f 135/40/2 134/29/2 125/24/2 124/38/2 
f 138/42/81 131/22/82 130/27/83 133/43/84 
f 143/41/4 139/37/6 138/42/81 
f 133/43/84 132/28/80 144/23/79 143/41/4 
s off
f 146/39/85 135/40/85 155/40/85 156/39/85 
f 135/40/86 124/38/86 157/38/86 155/40/86 
f 124/38/5 146/39/5 156/39/5 157/38/5 
f 138/42/87 133/43/87 158/43/87 159/42/87 
f 133/43/88 143/41/88 160/41/88 158/43/88 
f 143/41/89 138/42/89 159/42/89 160/41/89 
f 156/39/85 155/40/85 161/40/85 162/39/85 
f 163/40/86 164/38/86 165/38/86 166/40/86 
f 157/38/5 156/39/5 162/39/5 167/38/5 
f 168/42/90 169/43/90 170/43/90 171/42/90 
f 158/43/91 160/41/91 172/41/91 173/43/91 
f 160/41/92 159/42/92 174/42/92 172/41/92 
f 162/39/93 161/40/93 80/40/93 79/39/93 
f 161/40/94 167/38/94 78/38/94 80/40/94 
f 167/38/5 162/39/5 79/39/5 78/38/5 
f 174/42/95 173/43/95 83/43/95 82/42/95 
f 173/43/96 172/41/96 81/41/96 83/43/96 
f 172/41/97 174/42/97 82/42/97 81/41/97 
f 155/40/98 157/38/98 164/38/98 163/40/98 
f 157/38/99 167/38/99 165/38/99 164/38/99 
f 167/38/100 161/40/100 166/40/100 165/38/100 
f 161/40/101 155/40/101 163/40/101 166/40/101 
f 159/42/102 158/43/102 169/43/102 168/42/102 
f 158/43/103 173/43/103 170/43/103 169/43/103 
f 173/43/104 174/42/104 171/42/104 170/43/104 
f 174/42/105 159/42/105 168/42/105 171/42/105 
# 166 polygons - 4 triangles

