# 3ds Max Wavefront OBJ Exporter v0.97b - (c)2007 guruware
# File Created: 12.10.2017 11:51:04

mtllib Crave.mtl

#
# object Box001
#

v  0.1086 -0.0523 -1.9232
v  0.1086 -0.0523 -1.3415
v  -0.6056 -0.0523 -1.3415
v  -0.6056 -0.0523 -1.9232
v  -0.0628 4.1948 -1.3925
v  -0.0628 4.1948 -1.4648
v  -0.4342 4.1948 -1.4648
v  -0.4342 4.1948 -1.3925
v  0.1086 -0.0523 2.5166
v  0.1086 0.0523 2.5166
v  -0.6056 0.0523 2.5166
v  -0.6056 -0.0523 2.5166
v  0.8229 -0.0523 -1.3415
v  0.8229 -0.0523 -1.9232
v  0.8229 0.0523 -1.9232
v  0.8229 0.0523 -1.3415
v  -0.6056 0.0523 -1.9232
v  0.1086 0.0523 -1.9232
v  -1.3199 -0.0523 -1.9232
v  -1.3199 -0.0523 -1.3415
v  -1.3199 0.0523 -1.3415
v  -1.3199 0.0523 -1.9232
v  0.1086 -0.0523 1.2305
v  -0.6056 -0.0523 1.2305
v  -0.6056 -0.0523 -0.0555
v  0.1086 -0.0523 -0.0555
v  0.8229 0.0523 2.5166
v  0.8229 -0.0523 2.5166
v  -1.1830 0.2760 2.2808
v  0.6860 0.2760 2.2808
v  0.6860 0.2760 -1.1058
v  -1.1830 0.2760 -1.1058
v  -1.3199 -0.0523 2.5166
v  -1.3199 0.0523 2.5166
v  -0.6056 0.0523 -0.9341
v  -0.5912 0.1767 -1.2626
v  0.0942 0.1767 -1.2626
v  0.1086 0.0523 -0.9341
v  -1.2765 0.1767 2.4377
v  -1.2765 0.1767 -1.2626
v  0.0942 0.1767 2.4377
v  -0.5912 0.1767 2.4377
v  0.7795 0.1767 -1.2626
v  0.7795 0.1767 2.4377
v  0.0508 0.1502 -1.2009
v  -0.5478 0.1502 -1.2009
v  0.6494 0.1502 -1.6563
v  0.6494 0.1502 -1.2009
v  -0.5478 0.1502 -1.6563
v  0.0508 0.1502 -1.6563
v  -1.1464 0.1502 -1.2009
v  -1.1464 0.1502 -1.6563
v  0.2604 1.8129 -1.1175
v  -0.7574 1.8129 -1.1175
v  -0.7574 1.2652 -1.1175
v  0.2604 1.2652 -1.1175
v  0.6842 2.1206 -1.6651
v  0.6842 2.1206 -1.1921
v  -0.5261 1.4573 -1.6980
v  0.0291 1.4573 -1.6980
v  0.0291 0.8196 -1.6980
v  -0.5261 0.8196 -1.6980
v  -1.1812 2.1206 -1.1921
v  -1.1812 2.1206 -1.6651
v  -0.5261 0.1820 -1.6980
v  0.0291 0.1820 -1.6980
v  -1.0814 2.0949 -1.6980
v  -1.0814 0.1820 -1.6980
v  0.0624 2.1206 -1.6651
v  0.0291 2.0949 -1.6980
v  -0.5261 2.0949 -1.6980
v  -0.5594 2.1206 -1.6651
v  0.5844 0.1820 -1.6980
v  0.5844 2.0949 -1.6980
v  0.4023 2.1287 -1.0003
v  -0.0142 2.5317 -1.2033
v  -0.4828 2.5317 -1.2033
v  -0.8993 2.1287 -1.0003
v  0.6110 2.2608 -1.5525
v  0.6110 2.2608 -1.3047
v  -0.5594 2.1258 -1.7891
v  -0.4828 2.5317 -1.6539
v  -0.0142 2.5317 -1.6539
v  0.0624 2.1258 -1.7891
v  -1.1080 2.2608 -1.3047
v  -1.1080 2.2608 -1.5525
v  -0.0142 2.5265 -1.5299
v  -0.0142 2.5265 -1.3273
v  -0.4828 2.5265 -1.3273
v  -0.4828 2.5265 -1.5299
v  0.4023 2.1177 -1.2599
v  0.3743 1.8685 -1.2009
v  0.3743 1.2097 -1.2009
v  -0.8713 1.2097 -1.2009
v  -0.8713 1.8685 -1.2009
v  -0.8993 2.1177 -1.2599
v  0.6842 2.1258 -1.0681
v  0.6110 2.2660 -1.1807
v  -1.1080 2.2660 -1.1807
v  -1.1812 2.1258 -1.0681
v  -1.1812 2.1258 -1.7891
v  -1.1080 2.2660 -1.6765
v  0.6110 2.2660 -1.6765
v  0.6842 2.1258 -1.7891
v  -0.0229 4.0216 -1.3311
v  -0.4741 4.0216 -1.3311
v  -0.4741 3.7475 -1.3311
v  -0.0229 3.7475 -1.3311
v  -0.4741 3.4692 -1.3311
v  -0.0229 3.4692 -1.3311
v  0.4249 3.7475 -1.5262
v  0.4249 3.7475 -1.3311
v  0.4249 3.4692 -1.3311
v  0.4249 3.4692 -1.5262
v  -0.4741 4.0216 -1.5262
v  -0.0229 4.0216 -1.5262
v  -0.0229 3.7475 -1.5262
v  -0.4741 3.7475 -1.5262
v  -0.0229 3.4692 -1.5262
v  -0.4741 3.4692 -1.5262
v  -0.9219 3.7475 -1.3311
v  -0.9219 3.7475 -1.5262
v  -0.9219 3.4692 -1.5262
v  -0.9219 3.4692 -1.3311
v  0.3743 1.8685 -1.2093
v  0.3743 1.2097 -1.2093
v  -0.8713 1.8685 -1.2093
v  -0.8713 1.2097 -1.2093
v  0.3743 1.8685 -1.1843
v  0.3743 1.2097 -1.1843
v  -0.8713 1.8685 -1.1843
v  -0.8713 1.2097 -1.1843
v  0.7240 0.1767 2.3392
v  -1.2209 0.1767 2.3392
v  -1.2209 0.1767 -1.1641
v  0.7240 0.1767 -1.1641
# 136 vertices

vn 0.0000 -1.0000 0.0000
vn 0.0000 1.0000 -0.0000
vn 0.0000 0.0000 1.0000
vn 0.0000 0.0991 0.9951
vn 1.0000 0.0000 -0.0000
vn 0.9631 0.2692 0.0000
vn 0.9705 0.2412 0.0000
vn 0.0000 0.0000 -1.0000
vn 0.0000 0.3490 -0.9371
vn -1.0000 0.0000 -0.0000
vn -0.9705 0.2412 0.0000
vn -0.9631 0.2692 0.0000
vn -0.0000 -1.0000 0.0000
vn 0.9969 0.0786 -0.0000
vn -0.9969 0.0786 -0.0000
vn 0.0000 -0.6424 -0.7664
vn -0.9858 0.1678 -0.0000
vn 0.0000 0.1973 0.9804
vn 0.9858 0.1678 -0.0000
vn 0.0000 0.6542 0.7564
vn 0.0000 0.3490 0.9371
vn -0.0000 0.3490 0.9371
vn 0.9168 0.3993 0.0000
vn 0.9531 0.3027 0.0000
vn 0.0000 0.6542 -0.7564
vn -0.9531 0.3027 0.0000
vn -0.9168 0.3993 0.0000
vn 0.1372 0.1372 0.9810
vn -0.1372 0.1372 0.9810
vn -0.1372 -0.1372 0.9810
vn 0.1372 -0.1372 0.9810
vn 0.9874 0.1578 0.0118
vn 0.9874 0.1578 -0.0118
vn -0.0000 0.0000 -1.0000
vn -0.9874 0.1578 -0.0118
vn -0.9874 0.1578 0.0118
vn 0.0000 -0.3846 -0.9231
vn 0.0000 -0.1961 -0.9806
vn -0.1980 -0.1989 -0.9598
vn -0.1461 0.1218 -0.9817
vn -0.0713 0.1612 -0.9843
vn -0.1489 -0.1489 -0.9776
vn 0.0000 0.3768 -0.9263
vn 0.0000 0.1920 -0.9814
vn 0.1470 0.1240 -0.9813
vn 0.1985 -0.2012 -0.9592
vn 0.1466 -0.1506 -0.9777
vn 0.0703 0.1622 -0.9843
vn 0.1145 0.2278 0.9670
vn 0.0326 0.1737 0.9843
vn -0.0326 0.1737 0.9843
vn -0.1145 0.2278 0.9670
vn 0.8578 0.5129 0.0324
vn 0.8578 0.5129 -0.0324
vn -0.0276 0.1301 -0.9911
vn -0.0233 0.1072 -0.9940
vn 0.0233 0.1072 -0.9940
vn 0.0276 0.1301 -0.9911
vn -0.8578 0.5129 -0.0324
vn -0.8578 0.5129 0.0324
vn 0.4676 0.8802 0.0816
vn 0.4676 0.8802 -0.0816
vn -0.4676 0.8802 -0.0816
vn -0.4676 0.8802 0.0816
vn 0.0000 0.0936 0.9956
vn 0.0000 0.2692 -0.9631
vn 0.0861 -0.4970 -0.8635
vn 0.3447 0.1284 -0.9299
vn 0.2812 -0.0621 -0.9576
vn -0.2812 -0.0621 -0.9576
vn -0.3447 0.1284 -0.9299
vn -0.0861 -0.4970 -0.8635
vn 0.0754 0.5282 0.8458
vn 0.3449 -0.1255 0.9302
vn 0.1787 0.0125 0.9838
vn -0.1787 0.0124 0.9838
vn -0.3449 -0.1255 0.9302
vn -0.0754 0.5282 0.8458
vn -0.1080 0.0538 0.9927
vn -0.0809 0.0790 0.9936
vn -0.0250 0.0338 0.9991
vn -0.0000 -0.0000 1.0000
vn 0.0070 -0.0008 1.0000
vn 0.1079 0.0541 0.9927
vn 0.0265 0.0345 0.9991
vn 0.0809 0.0790 0.9936
vn 0.1539 0.2807 0.9474
vn 0.1814 0.2607 0.9482
vn -0.1814 0.2607 0.9482
vn -0.1539 0.2807 0.9474
vn 0.0000 0.2470 -0.9690
vn -0.0354 0.1829 -0.9825
vn 0.0354 0.1829 -0.9825
vn 0.0000 0.0539 0.9985
vn 0.0000 0.0004 1.0000
vn 0.0000 0.0013 1.0000
vn 0.7071 0.7071 -0.0000
vn 0.7071 -0.7071 -0.0000
vn 0.0000 0.0539 -0.9985
vn -0.0000 -0.0000 -1.0000
vn -0.0000 0.0004 -1.0000
vn 0.0000 0.0013 -1.0000
vn -0.7071 0.7071 0.0000
vn -0.7071 -0.7071 0.0000
vn 1.0000 0.0045 -0.0000
vn 0.7090 -0.7052 -0.0000
vn 0.9985 0.0539 -0.0000
vn -0.9985 0.0539 0.0000
vn -1.0000 0.0045 0.0000
vn -0.7090 -0.7052 0.0000
vn 0.0000 0.1118 0.9937
vn 0.9937 0.1118 -0.0000
vn 0.0000 0.1118 -0.9937
vn -0.9937 0.1118 0.0000
vn -0.0000 -1.0000 -0.0000
vn 0.1839 -0.1839 0.9656
vn 0.1839 0.1839 0.9656
vn -0.1839 0.1839 0.9656
vn -0.1839 -0.1839 0.9656
vn -0.0000 1.0000 0.0000
vn 0.0000 1.0000 0.0000
vn -0.9831 0.1833 0.0000
vn -0.0000 0.1833 0.9831
vn 0.9831 0.1833 -0.0000
vn 0.0000 0.1833 -0.9831
vn 0.0000 -0.9913 0.1315
vn -0.0000 -0.9913 0.1315
vn 0.8546 0.5148 -0.0683
vn 0.9704 0.2393 -0.0317
vn 0.3415 0.9317 -0.1236
vn -0.3415 0.9317 -0.1236
vn -0.8546 0.5148 -0.0683
vn -0.9704 0.2393 -0.0317
vn 0.0000 -0.9913 -0.1315
vn -0.8546 0.5148 0.0683
vn -0.9704 0.2393 0.0317
vn -0.3415 0.9317 0.1236
vn 0.3415 0.9317 0.1236
vn 0.8546 0.5148 0.0683
vn 0.9704 0.2393 0.0317
# 140 vertex normals

vt 0.3333 1.0000 0.0000
vt 0.3333 0.0000 0.0000
vt 0.6667 0.0000 0.0000
vt 0.6667 1.0000 0.0000
vt 0.0000 0.0000 0.0000
vt 1.0000 0.0000 0.0000
vt 1.0000 1.0000 0.0000
vt 0.0000 1.0000 0.0000
# 8 texture coords

g Box001
usemtl 01___Default
s 1
f 1/1/1 2/2/1 3/3/1 4/4/1 
f 5/3/2 6/4/2 7/1/2 8/2/2 
s 2
f 9/3/3 10/4/4 11/1/4 12/2/3 
s 4
f 13/5/5 14/6/5 15/7/6 16/8/7 
s 2
f 4/3/8 17/4/9 18/1/9 1/2/8 
s 4
f 19/5/10 20/6/10 21/7/11 22/8/12 
s 1
f 23/3/1 24/2/13 25/2/1 26/3/13 
s 4
f 13/6/5 16/7/7 27/7/14 28/6/5 
s 1
f 29/1/2 30/4/2 31/4/2 32/1/2 
s 4
f 21/8/11 20/5/10 33/5/10 34/8/15 
s 1
f 35/1/16 36/1/16 37/4/16 38/4/16 
s 4
f 21/8/11 34/8/15 39/8/17 40/8/17 
s 2
f 10/4/4 41/4/18 42/1/18 11/1/4 
s 4
f 27/7/14 16/7/7 43/7/19 44/7/19 
s 1
f 38/3/20 45/3/21 46/2/22 35/2/20 
s 4
f 16/6/7 15/7/6 47/7/23 48/6/24 
s 2
f 17/1/9 49/1/25 50/4/25 18/4/9 
s 4
f 22/8/12 21/5/11 51/5/26 52/8/27 
s 1
f 53/3/28 54/2/29 55/2/30 56/3/31 
s 4
f 48/6/24 47/7/23 57/7/32 58/6/33 
s 1
f 59/1/34 60/4/34 61/4/8 62/1/8 
s 4
f 52/8/27 51/5/26 63/5/35 64/8/36 
s 1
f 49/1/37 65/1/38 66/4/38 50/4/37 
f 52/8/39 64/8/40 67/8/41 68/8/42 
f 69/4/43 70/4/44 71/1/44 72/1/43 
f 57/7/45 47/7/46 73/7/47 74/7/48 
f 75/3/49 76/3/50 77/2/51 78/2/52 
s 4
f 58/6/33 57/7/32 79/7/53 80/6/54 
s 1
f 81/1/55 82/1/56 83/4/57 84/4/58 
s 4
f 64/8/36 63/5/35 85/5/59 86/8/60 
s 1
f 14/8/1 13/5/13 2/2/1 1/1/1 
f 20/6/1 19/7/1 4/4/1 3/3/1 
s 4
f 80/6/54 79/7/53 87/4/61 88/3/62 
f 86/8/60 85/5/59 89/2/63 90/1/64 
s 2
f 28/6/3 27/7/65 10/4/4 9/3/3 
f 34/8/65 33/5/3 12/2/3 11/1/4 
f 19/6/8 22/7/66 17/4/9 4/3/8 
f 15/8/66 14/5/8 1/2/8 18/1/9 
s 1
f 13/6/13 28/6/1 9/3/1 23/3/1 
f 13/6/13 23/3/1 26/3/13 2/3/1 
f 33/5/13 20/5/1 3/2/1 25/2/1 
f 33/5/13 25/2/1 24/2/13 12/2/1 
f 40/8/2 39/8/2 42/1/2 36/1/2 
f 44/7/2 43/7/2 37/4/2 41/4/2 
s 2
f 35/1/67 21/8/68 40/8/69 36/1/16 
f 43/7/70 16/7/71 38/4/72 37/4/16 
f 10/4/4 27/7/65 44/7/18 41/4/18 
f 39/8/18 34/8/65 11/1/4 42/1/18 
s 1
f 38/3/73 16/6/74 48/6/75 45/3/21 
f 51/5/76 21/5/77 35/2/78 46/2/22 
s 2
f 17/1/9 22/8/66 52/8/25 49/1/25 
f 47/7/25 15/7/66 18/4/9 50/4/25 
s 1
f 58/6/79 91/3/80 92/3/81 48/6/75 
f 48/6/75 92/3/81 93/3/82 45/3/21 
f 51/5/76 46/2/22 94/2/83 63/5/84 
f 63/5/84 94/2/83 95/2/85 96/2/86 
f 68/8/42 67/8/41 71/1/44 59/1/34 
f 68/8/42 59/1/34 62/1/8 65/1/38 
f 74/7/48 73/7/47 66/4/38 61/4/8 
f 74/7/48 61/4/8 60/4/34 70/4/44 
f 49/1/37 52/8/39 68/8/42 65/1/38 
f 73/7/47 47/7/46 50/4/37 66/4/38 
f 69/4/43 57/7/45 74/7/48 70/4/44 
f 67/8/41 64/8/40 72/1/43 71/1/44 
f 75/3/49 97/6/87 98/6/88 76/3/50 
f 99/5/89 100/5/90 78/2/52 77/2/51 
f 81/1/55 101/8/91 102/8/92 82/1/56 
f 103/7/93 104/7/91 84/4/58 83/4/57 
s 2
f 105/3/94 106/2/94 107/2/3 108/3/3 
f 108/3/3 107/2/3 109/2/95 110/3/95 
f 110/3/95 109/2/95 89/2/96 88/3/96 
s 8
f 111/4/97 112/3/97 113/3/98 114/4/98 
s 2
f 115/1/99 116/4/99 117/4/100 118/1/100 
f 118/1/100 117/4/100 119/4/101 120/1/101 
f 120/1/101 119/4/101 87/4/102 90/1/102 
s 8
f 121/2/103 122/1/103 123/1/104 124/2/104 
s 2
f 108/3/3 110/3/95 113/3/3 112/3/3 
s 8
f 88/3/105 87/4/105 119/4/106 110/3/106 
f 110/3/106 119/4/106 114/4/98 113/3/98 
s 2
f 119/4/101 117/4/100 111/4/34 114/4/34 
s 8
f 116/4/107 105/3/107 108/3/97 117/4/97 
f 117/4/97 108/3/97 112/3/97 111/4/97 
s 2
f 109/2/95 107/2/3 121/2/3 124/2/3 
s 8
f 106/2/108 115/1/108 118/1/103 107/2/103 
f 107/2/103 118/1/103 122/1/103 121/2/103 
s 2
f 118/1/100 120/1/101 123/1/34 122/1/34 
s 8
f 90/1/109 89/2/109 109/2/110 120/1/110 
f 120/1/110 109/2/110 124/2/104 123/1/104 
s 2
f 106/2/94 105/3/94 5/3/111 8/2/111 
s 8
f 105/3/107 116/4/107 6/4/112 5/3/112 
s 2
f 116/4/99 115/1/99 7/1/113 6/4/113 
s 8
f 115/1/108 106/2/108 8/2/114 7/1/114 
s 1
f 91/3/80 96/2/86 95/2/85 92/3/81 
f 46/2/22 45/3/21 93/3/82 94/2/83 
f 71/1/44 70/4/44 60/4/34 59/1/34 
f 66/4/38 65/1/38 62/1/8 61/4/8 
s 2
f 93/3/10 92/3/10 125/3/10 126/3/10 
s 4
f 92/3/115 95/2/115 127/2/115 125/3/115 
s 2
f 95/2/5 94/2/5 128/2/5 127/2/5 
s 4
f 94/2/2 93/3/2 126/3/2 128/2/2 
s 8
f 126/3/5 125/3/5 92/3/5 93/3/5 
s 16
f 125/3/2 127/2/2 95/2/2 92/3/2 
s 8
f 127/2/10 128/2/10 94/2/10 95/2/10 
s 16
f 128/2/115 126/3/115 93/3/115 94/2/115 
s 8
f 93/3/5 92/3/5 129/3/5 130/3/5 
s 16
f 92/3/2 95/2/2 131/2/2 129/3/2 
s 8
f 95/2/10 94/2/10 132/2/10 131/2/10 
s 16
f 94/2/115 93/3/115 130/3/115 132/2/115 
s 1
f 130/3/116 129/3/117 53/3/28 56/3/31 
f 129/3/117 131/2/118 54/2/29 53/3/28 
f 131/2/118 132/2/119 55/2/30 54/2/29 
f 132/2/119 130/3/116 56/3/31 55/2/30 
f 9/3/1 12/2/1 24/2/13 23/3/1 
f 3/2/1 2/3/1 26/3/13 25/2/1 
s 4
f 42/1/2 41/4/2 133/4/2 134/1/2 
s 2
f 37/4/120 36/1/121 135/1/120 136/4/120 
s 8
f 135/1/122 134/1/122 29/1/122 32/1/122 
s 2
f 134/1/123 133/4/123 30/4/123 29/1/123 
s 8
f 133/4/124 136/4/124 31/4/124 30/4/124 
s 4
f 136/4/125 135/1/125 32/1/125 31/4/125 
s 2
f 63/5/126 96/2/126 78/2/126 100/5/126 
f 96/2/126 91/3/127 75/3/127 78/2/126 
f 91/3/127 58/6/127 97/6/127 75/3/127 
s 4
f 58/6/33 80/6/54 98/6/128 97/6/129 
f 80/6/54 88/3/62 76/3/130 98/6/128 
f 88/3/62 89/2/63 77/2/131 76/3/130 
f 89/2/63 85/5/59 99/5/132 77/2/131 
f 85/5/59 63/5/35 100/5/133 99/5/132 
s 2
f 57/7/134 69/4/134 84/4/134 104/7/134 
f 69/4/134 72/1/134 81/1/134 84/4/134 
f 72/1/134 64/8/134 101/8/134 81/1/134 
s 4
f 64/8/36 86/8/60 102/8/135 101/8/136 
f 86/8/60 90/1/64 82/1/137 102/8/135 
f 90/1/64 87/4/61 83/4/138 82/1/137 
f 87/4/61 79/7/53 103/7/139 83/4/138 
f 79/7/53 57/7/32 104/7/140 103/7/139 
# 136 polygons

