# 3ds Max Wavefront OBJ Exporter v0.97b - (c)2007 guruware
# File Created: 13.10.2017 11:31:25

mtllib cloture_bois_foret.mtl

#
# object Box002
#

v  -0.0476 0.0000 -0.0000
v  0.0476 0.0000 -0.0000
v  0.0476 0.0000 0.0629
v  -0.0476 0.0000 0.0629
v  0.0476 1.9583 0.0629
v  0.0476 1.9999 -0.0000
v  -0.0476 1.9999 -0.0000
v  -0.0476 1.9583 0.0629
v  0.0476 0.0000 -0.0629
v  -0.0476 0.0000 -0.0629
v  -0.0476 1.9583 -0.0629
v  0.0476 1.9583 -0.0629
v  -0.6061 1.5159 0.0292
v  -0.6061 1.5159 -0.0387
v  4.5567 1.5159 -0.0387
v  4.5567 1.5159 0.0292
v  -0.6061 1.7450 0.0292
v  4.5567 1.7450 0.0292
v  4.5567 1.7450 -0.0387
v  -0.6061 1.7450 -0.0387
v  4.7122 1.6305 0.0292
v  -0.7612 1.6305 0.0292
v  4.7122 1.6305 -0.0387
v  -0.7612 1.6305 -0.0387
v  3.8884 0.0000 -0.0000
v  3.9835 0.0000 -0.0000
v  3.9835 0.0000 0.0629
v  3.8884 0.0000 0.0629
v  3.9835 1.9583 0.0629
v  3.9835 1.9999 -0.0000
v  3.8884 1.9999 -0.0000
v  3.8884 1.9583 0.0629
v  3.9835 0.0000 -0.0629
v  3.8884 0.0000 -0.0629
v  3.8884 1.9583 -0.0629
v  3.9835 1.9583 -0.0629
v  -0.6061 0.9921 0.0292
v  -0.6061 0.9921 -0.0387
v  4.5567 0.9921 -0.0387
v  4.5567 0.9921 0.0292
v  -0.6061 1.2211 0.0292
v  4.5567 1.2211 0.0292
v  4.5567 1.2211 -0.0387
v  -0.6061 1.2211 -0.0387
v  4.7122 1.1066 0.0292
v  -0.7612 1.1066 0.0292
v  4.7122 1.1066 -0.0387
v  -0.7612 1.1066 -0.0387
v  -0.6061 0.4653 0.0292
v  -0.6061 0.4653 -0.0387
v  4.5567 0.4653 -0.0387
v  4.5567 0.4653 0.0292
v  -0.6061 0.6943 0.0292
v  4.5567 0.6943 0.0292
v  4.5567 0.6943 -0.0387
v  -0.6061 0.6943 -0.0387
v  4.7122 0.5798 0.0292
v  -0.7612 0.5798 0.0292
v  4.7122 0.5798 -0.0387
v  -0.7612 0.5798 -0.0387
# 60 vertices

vn 0.0000 -1.0000 -0.0000
vn 0.0000 0.5983 0.8013
vn 0.0000 1.0000 -0.0000
vn 0.0000 0.0000 1.0000
vn 1.0000 0.0000 -0.0000
vn 0.0000 0.0000 -1.0000
vn -1.0000 0.0000 -0.0000
vn 0.0000 0.5983 -0.8013
vn -0.0000 -0.0000 1.0000
vn 0.0000 -0.0000 1.0000
vn 0.7483 -0.6634 -0.0000
vn -0.0000 -0.0000 -1.0000
vn 0.0000 -0.0000 -1.0000
vn -0.7491 -0.6625 -0.0000
vn -0.7491 0.6625 -0.0000
vn 0.7483 0.6634 -0.0000
vn -1.0000 -0.0000 -0.0000
# 17 vertex normals

vt 1.0000 0.0476 0.0000
vt 0.9048 0.0476 0.0000
vt 0.9048 0.0000 0.0000
vt 1.0000 0.0000 0.0000
vt 0.0952 0.0000 0.0000
vt 0.0952 0.0476 0.0000
vt 0.0000 0.0476 0.0000
vt 0.0000 0.0000 0.0000
vt 0.0952 3.0000 0.0000
vt 0.0000 3.0000 0.0000
vt 0.0476 0.0000 0.0000
vt 0.0476 3.0000 0.0000
vt 1.0000 0.0952 0.0000
vt 0.9048 0.0952 0.0000
vt 0.0952 0.0952 0.0000
vt 0.0000 0.0952 0.0000
vt 1.0000 0.1841 0.0000
vt -2.3230 0.1841 0.0000
vt -2.3230 0.0000 0.0000
vt 3.3230 0.0000 0.0000
vt 3.3230 0.1841 0.0000
vt 0.0000 0.1841 0.0000
vt 3.3230 0.0845 0.0000
vt 3.3230 0.1690 0.0000
vt 0.0000 0.1690 0.0000
vt 0.0000 0.0845 0.0000
vt 0.1841 0.0000 0.0000
vt 0.1841 0.0845 0.0000
vt 0.1841 0.1690 0.0000
# 29 texture coords

g Box002
usemtl wire_053015000
s 2
f 1/1/1 2/2/1 3/3/1 4/4/1 
s 4
f 5/5/2 6/6/3 7/7/3 8/8/2 
s 8
f 4/8/4 3/5/4 5/9/4 8/10/4 
s 16
f 2/11/5 6/12/5 5/10/5 3/8/5 
s 32
f 9/8/6 10/5/6 11/9/6 12/10/6 
s 64
f 1/11/7 7/12/7 11/10/7 10/8/7 
s 2
f 10/13/1 9/14/1 2/2/1 1/1/1 
s 4
f 12/15/8 11/16/8 7/7/3 6/6/3 
s 16
f 9/5/5 12/9/5 6/12/5 2/11/5 
s 64
f 4/5/7 8/9/7 7/12/7 1/11/7 
s 2
f 13/4/1 14/17/1 15/18/1 16/19/1 
s 4
f 17/8/3 18/20/3 19/21/3 20/22/3 
s 8
f 13/8/9 16/20/4 21/23/10 18/24/10 
f 18/24/10 17/25/10 22/26/9 13/8/9 
s 16
f 15/27/11 23/28/5 21/26/5 16/8/11 
s 32
f 15/8/6 14/20/6 24/23/12 20/24/12 
f 20/24/12 19/25/13 23/26/6 15/8/6 
s 64
f 13/27/14 22/28/7 24/26/7 14/8/14 
f 17/29/15 20/25/15 24/26/7 22/28/7 
s 16
f 19/29/16 18/25/16 21/26/5 23/28/5 
s 2
f 25/1/1 26/2/1 27/3/1 28/4/1 
s 4
f 29/5/2 30/6/3 31/7/3 32/8/2 
s 8
f 28/8/4 27/5/4 29/9/4 32/10/4 
s 16
f 26/11/5 30/12/5 29/10/5 27/8/5 
s 32
f 33/8/6 34/5/6 35/9/6 36/10/6 
s 64
f 25/11/7 31/12/7 35/10/7 34/8/7 
s 2
f 34/13/1 33/14/1 26/2/1 25/1/1 
s 4
f 36/15/8 35/16/8 31/7/3 30/6/3 
s 16
f 33/5/5 36/9/5 30/12/5 26/11/5 
s 64
f 28/5/7 32/9/7 31/12/7 25/11/7 
s 2
f 37/4/1 38/17/1 39/18/1 40/19/1 
s 4
f 41/8/3 42/20/3 43/21/3 44/22/3 
s 8
f 37/8/9 40/20/4 45/23/10 42/24/10 
f 42/24/10 41/25/10 46/26/9 37/8/9 
s 16
f 39/27/11 47/28/5 45/26/5 40/8/11 
s 32
f 39/8/6 38/20/6 48/23/12 44/24/12 
f 44/24/12 43/25/13 47/26/6 39/8/6 
s 64
f 37/27/14 46/28/7 48/26/17 38/8/14 
f 41/29/15 44/25/15 48/26/17 46/28/7 
s 16
f 43/29/16 42/25/16 45/26/5 47/28/5 
s 2
f 49/4/1 50/17/1 51/18/1 52/19/1 
s 4
f 53/8/3 54/20/3 55/21/3 56/22/3 
s 8
f 49/8/9 52/20/4 57/23/10 54/24/10 
f 54/24/10 53/25/10 58/26/9 49/8/9 
s 16
f 51/27/11 59/28/5 57/26/5 52/8/11 
s 32
f 51/8/6 50/20/6 60/23/12 56/24/12 
f 56/24/12 55/25/13 59/26/6 51/8/6 
s 64
f 49/27/14 58/28/7 60/26/17 50/8/14 
f 53/29/15 56/25/15 60/26/17 58/28/7 
s 16
f 55/29/16 54/25/16 57/26/5 59/28/5 
# 50 polygons

